<?xml version="1.0" standalone="no"?>
<!DOCTYPE svg PUBLIC "-//W3C//DTD SVG 20010904//EN"
 "http://www.w3.org/TR/2001/REC-SVG-20010904/DTD/svg10.dtd">
<svg version="1.0" xmlns="http://www.w3.org/2000/svg"
 width="16.000000pt" height="16.000000pt" viewBox="0 0 16.000000 16.000000"
 preserveAspectRatio="xMidYMid meet">

<g transform="translate(0.000000,16.000000) scale(0.100000,-0.100000)"
fill="#000000" stroke="none">
<path d="M26 131 c-26 -27 -27 -33 -19 -68 7 -33 14 -40 51 -53 42 -14 42 -14
73 16 27 27 30 35 23 68 -5 31 -13 41 -40 52 -47 20 -57 18 -88 -15z m54 10
c0 -5 12 -11 28 -13 16 -2 27 -9 27 -18 0 -8 4 -21 8 -27 5 -7 3 -21 -2 -30
-9 -16 -10 -16 -11 3 0 25 -45 58 -63 47 -7 -4 -5 2 3 12 13 16 13 18 0 13
-19 -6 -30 -49 -17 -66 7 -9 5 -11 -9 -6 -15 6 -17 4 -7 -6 10 -11 18 -11 40
-2 l28 12 -24 -20 c-13 -11 -27 -20 -31 -20 -12 0 -34 30 -27 37 4 3 2 12 -3
18 -6 7 -7 21 -3 31 6 17 8 16 14 -6 l7 -25 1 26 c1 25 17 49 33 49 4 0 8 -4
8 -9z m18 -63 c-6 -17 -30 -17 -35 0 -3 7 4 12 17 12 13 0 20 -5 18 -12z m12
-54 c-7 -7 -20 -14 -29 -13 -12 0 -11 4 7 16 12 8 23 25 23 37 2 20 2 19 6 -2
3 -13 -1 -30 -7 -38z"/>
<path d="M100 110 c8 -5 20 -10 25 -10 6 0 3 5 -5 10 -8 5 -19 10 -25 10 -5 0
-3 -5 5 -10z"/>
</g>
</svg>
